<?xml version="1.0" encoding="UTF-8" standalone="no"?>
<!DOCTYPE svg PUBLIC "-//W3C//DTD SVG 1.1//EN"
 "http://www.w3.org/Graphics/SVG/1.1/DTD/svg11.dtd">
<!-- Generated by graphviz version 11.0.0 (20240428.1522)
 -->
<!-- Pages: 1 -->
<svg width="239pt" height="116pt"
 viewBox="0.00 0.00 238.63 116.00" xmlns="http://www.w3.org/2000/svg" xmlns:xlink="http://www.w3.org/1999/xlink">
<g id="graph0" class="graph" transform="scale(1 1) rotate(0) translate(4 112)">
<polygon fill="white" stroke="none" points="-4,4 -4,-112 234.63,-112 234.63,4 -4,4"/>
<!-- ipscan -->
<g id="node1" class="node">
<title>ipscan</title>
<ellipse fill="none" stroke="black" cx="43.32" cy="-90" rx="43.32" ry="18"/>
<text text-anchor="middle" x="43.32" y="-85.33" font-family="Times,serif" font-size="14.00">ipscan</text>
</g>
<!-- chat -->
<g id="node2" class="node">
<title>chat</title>
<ellipse fill="none" stroke="black" cx="137.32" cy="-90" rx="32.79" ry="18"/>
<text text-anchor="middle" x="137.32" y="-85.33" font-family="Times,serif" font-size="14.00">chat</text>
</g>
<!-- client -->
<g id="node3" class="node">
<title>client</title>
<ellipse fill="none" stroke="black" cx="87.32" cy="-18" rx="39.11" ry="18"/>
<text text-anchor="middle" x="87.32" y="-13.32" font-family="Times,serif" font-size="14.00">client</text>
</g>
<!-- chat&#45;&gt;client -->
<g id="edge1" class="edge">
<title>chat&#45;&gt;client</title>
<path fill="none" stroke="black" d="M125.72,-72.76C119.81,-64.49 112.48,-54.23 105.82,-44.9"/>
<polygon fill="black" stroke="black" points="108.74,-42.97 100.08,-36.87 103.04,-47.04 108.74,-42.97"/>
</g>
<!-- server -->
<g id="node4" class="node">
<title>server</title>
<ellipse fill="none" stroke="black" cx="187.32" cy="-18" rx="43.32" ry="18"/>
<text text-anchor="middle" x="187.32" y="-13.32" font-family="Times,serif" font-size="14.00">server</text>
</g>
<!-- chat&#45;&gt;server -->
<g id="edge2" class="edge">
<title>chat&#45;&gt;server</title>
<path fill="none" stroke="black" d="M148.91,-72.76C154.82,-64.49 162.15,-54.23 168.82,-44.9"/>
<polygon fill="black" stroke="black" points="171.59,-47.04 174.56,-36.87 165.9,-42.97 171.59,-47.04"/>
</g>
</g>
</svg>
